<svg width="238" height="40" viewBox="0 0 238 40" fill="none" xmlns="http://www.w3.org/2000/svg">
<path d="M42.0017 39.2522V0.19621H42.7333C47.5349 0.19621 52.3374 0.177595 57.1399 0.202725C60.2018 0.137819 63.248 0.655165 66.1168 1.72725C68.5324 2.62656 70.695 4.09637 72.4202 6.01152C74.1454 7.92667 75.3822 10.2304 76.0252 12.7265C77.6995 18.2194 77.3609 24.1292 75.0703 29.3949C74.1708 31.4513 72.8385 33.2897 71.1643 34.7847C69.4901 36.2797 67.5132 37.3961 65.3685 38.0581C62.8712 38.8847 60.2552 39.2956 57.6248 39.2745C52.5701 39.2931 47.5153 39.282 42.4606 39.281C42.3358 39.281 42.2111 39.2652 42.0054 39.2512M49.4996 32.5686C50.4052 32.5686 51.2606 32.5882 52.114 32.5686C54.9136 32.4914 57.7365 32.6012 60.5054 32.2652C62.3878 32.1182 64.1791 31.3939 65.6347 30.1913C67.0903 28.9887 68.1395 27.3663 68.639 25.5454C69.6542 22.221 69.7717 18.6873 68.9797 15.3028C67.9754 10.6008 64.7998 7.62525 60.0577 7.15895C57.7039 6.9272 55.3185 7.00166 52.947 6.95513C51.8143 6.93279 50.6798 6.95513 49.5033 6.95513L49.4996 32.5686Z" fill="white"/>
<path d="M165.604 39.4943C165.169 39.3142 164.755 39.0883 164.368 38.8205C156.066 31.3493 147.772 23.8693 139.486 16.3807C139.413 16.3156 139.33 16.2625 139.151 16.1248V39.2374H131.756V0C132.198 0.181769 132.617 0.412147 133.008 0.686874C141.18 8.18913 149.343 15.7004 157.498 23.2206C157.684 23.3882 157.87 23.5445 158.164 23.7977V0.253157H165.6L165.604 39.4943Z" fill="white"/>
<path d="M28.6393 39.2338V32.6703H7.42625V22.8847H26.2371V16.2765H7.42531V6.82689H28.6207V0.233643H0V39.231L28.6393 39.2338Z" fill="white"/>
<path d="M118.693 6.8194H97.4729V16.5492H116.282V23.1806H97.4719V32.633H118.692V39.2458H90.0513V0.247559H118.693V6.8194Z" fill="white"/>
<path d="M237.992 39.2833C235.375 39.2833 232.873 39.2972 230.375 39.2609C230.228 39.2368 230.089 39.1805 229.966 39.096C229.844 39.0115 229.742 38.9009 229.668 38.7723C228.811 37.1165 227.993 35.4422 227.181 33.7613C227.114 33.5626 226.983 33.3923 226.807 33.2779C226.631 33.1636 226.422 33.1119 226.213 33.1312C220.505 33.1529 214.796 33.1529 209.088 33.1312C208.88 33.1109 208.67 33.1622 208.495 33.2768C208.32 33.3913 208.189 33.5622 208.124 33.7613C207.326 35.4471 206.509 37.1224 205.672 38.7872C205.569 38.992 205.31 39.2526 205.121 39.2591C202.573 39.2898 200.025 39.2795 197.392 39.2795C197.508 39.0087 197.578 38.8021 197.682 38.6066C204.105 26.0388 210.533 13.474 216.967 0.912324C217.115 0.6238 217.456 0.246857 217.706 0.249649C217.955 0.252441 218.264 0.650791 218.409 0.943038C224.825 13.4582 231.231 25.978 237.628 38.5024C237.74 38.723 237.84 38.9501 238 39.2814M212.099 26.5854H223.211L217.679 14.836L212.095 26.5854" fill="white"/>
<path d="M186.715 8.9397H179.366V39.2282H186.715V8.9397Z" fill="white"/>
<path d="M186.715 0.233643H179.366V7.03258H186.715V0.233643Z" fill="#00C2BF"/>
</svg>
