<svg width="62" height="62" viewBox="0 0 62 62" fill="none" xmlns="http://www.w3.org/2000/svg">
<path d="M25.8333 5.29541C24.7645 5.29512 23.6967 5.8225 23.2071 6.8772L23.2046 6.87972L20.5834 12.5509C18.9447 16.0988 16.0987 18.9473 12.5509 20.586H12.5483L6.8771 23.2072C4.7633 24.1848 4.7633 27.4846 6.8771 28.4622L12.5483 31.0833H12.5509C16.0987 32.722 18.9447 35.568 20.5834 39.1159V39.1184L23.2046 44.7896C24.1822 46.9034 27.482 46.9034 28.4595 44.7896L31.0807 39.1184V39.1159C32.7194 35.568 35.5679 32.722 39.1158 31.0833L44.787 28.4622C46.9008 27.4846 46.9008 24.1848 44.787 23.2072L39.1158 20.586C35.5679 18.9473 32.7194 16.0988 31.0807 12.5509L28.4595 6.87972C27.9711 5.82366 26.9021 5.2957 25.8333 5.29541ZM25.8333 10.4318L27.564 14.1756C29.5884 18.5586 33.1081 22.0783 37.4911 24.1028L41.2349 25.8334L37.4911 27.564C33.1081 29.5885 29.5884 33.1082 27.564 37.4912L25.8333 41.235L24.1027 37.4912C22.0782 33.1082 18.5585 29.5885 14.1755 27.564L10.4317 25.8334L14.1755 24.1028C18.5585 22.0783 22.0782 18.5586 24.1027 14.1756L25.8333 10.4318ZM47.7614 38.7501C47.3148 38.757 46.8843 38.9179 46.5427 39.2057C46.2012 39.4935 45.9695 39.8904 45.887 40.3293C45.3542 43.1563 43.1562 45.3543 40.3293 45.887C39.8848 45.9701 39.4834 46.206 39.1946 46.5539C38.9057 46.9017 38.7476 47.3396 38.7476 47.7917C38.7476 48.2439 38.9057 48.6818 39.1946 49.0296C39.4834 49.3775 39.8848 49.6134 40.3293 49.6965C43.1562 50.2292 45.3542 52.4272 45.887 55.2541C45.97 55.6986 46.2059 56.1 46.5538 56.3888C46.9016 56.6777 47.3395 56.8358 47.7917 56.8358C48.2438 56.8358 48.6817 56.6777 49.0296 56.3888C49.3774 56.1 49.6133 55.6986 49.6964 55.2541C50.2291 52.4272 52.4271 50.2292 55.2541 49.6965C55.6985 49.6134 56.0999 49.3775 56.3888 49.0296C56.6776 48.6818 56.8357 48.2439 56.8357 47.7917C56.8357 47.3396 56.6776 46.9017 56.3888 46.5539C56.0999 46.206 55.6985 45.9701 55.2541 45.887C52.4271 45.3543 50.2291 43.1563 49.6964 40.3293C49.6119 39.8802 49.3713 39.4753 49.0173 39.1864C48.6632 38.8974 48.2184 38.7428 47.7614 38.7501ZM47.7917 45.2362C48.4993 46.2331 49.3503 47.0841 50.3472 47.7917C49.3503 48.4994 48.4993 49.3503 47.7917 50.3473C47.084 49.3503 46.2331 48.4994 45.2361 47.7917C46.2331 47.0841 47.084 46.2331 47.7917 45.2362Z" fill="#333333"/>
</svg>
