<svg width="48" height="48" viewBox="0 0 48 48" fill="none" xmlns="http://www.w3.org/2000/svg">
<path fill-rule="evenodd" clip-rule="evenodd" d="M0.875 5.5C0.875 2.94567 2.94567 0.875 5.5 0.875H14.75C17.3043 0.875 19.375 2.94567 19.375 5.5V8.58333H28.625V5.5C28.625 2.94567 30.6958 0.875 33.25 0.875H42.5C45.0542 0.875 47.125 2.94567 47.125 5.5V14.75C47.125 17.3043 45.0542 19.375 42.5 19.375H39.4167V28.625H42.5C45.0542 28.625 47.125 30.6958 47.125 33.25V42.5C47.125 45.0542 45.0542 47.125 42.5 47.125H33.25C30.6958 47.125 28.625 45.0542 28.625 42.5V39.4167H19.375V42.5C19.375 45.0542 17.3043 47.125 14.75 47.125H5.5C2.94567 47.125 0.875 45.0542 0.875 42.5V33.25C0.875 30.6958 2.94567 28.625 5.5 28.625H8.58333V19.375H5.5C2.94567 19.375 0.875 17.3043 0.875 14.75V5.5ZM36.3333 19.375H33.25C30.6958 19.375 28.625 17.3043 28.625 14.75V11.6667H19.375V14.75C19.375 17.3043 17.3043 19.375 14.75 19.375H11.6667V28.625H14.75C17.3043 28.625 19.375 30.6958 19.375 33.25V36.3333H28.625V33.25C28.625 30.6958 30.6958 28.625 33.25 28.625H36.3333V19.375ZM5.5 3.95833C4.64857 3.95833 3.95833 4.64857 3.95833 5.5V14.75C3.95833 15.6014 4.64857 16.2917 5.5 16.2917H14.75C15.6014 16.2917 16.2917 15.6014 16.2917 14.75V5.5C16.2917 4.64857 15.6014 3.95833 14.75 3.95833H5.5ZM3.95833 33.25C3.95833 32.3987 4.64857 31.7083 5.5 31.7083H14.75C15.6014 31.7083 16.2917 32.3987 16.2917 33.25V42.5C16.2917 43.3513 15.6014 44.0417 14.75 44.0417H5.5C4.64857 44.0417 3.95833 43.3513 3.95833 42.5V33.25ZM31.7083 33.25C31.7083 32.3987 32.3987 31.7083 33.25 31.7083H42.5C43.3513 31.7083 44.0417 32.3987 44.0417 33.25V42.5C44.0417 43.3513 43.3513 44.0417 42.5 44.0417H33.25C32.3987 44.0417 31.7083 43.3513 31.7083 42.5V33.25ZM31.7083 5.5C31.7083 4.64857 32.3987 3.95833 33.25 3.95833H42.5C43.3513 3.95833 44.0417 4.64857 44.0417 5.5V14.75C44.0417 15.6014 43.3513 16.2917 42.5 16.2917H33.25C32.3987 16.2917 31.7083 15.6014 31.7083 14.75V5.5Z" fill="#333333"/>
</svg>
