<svg width="62" height="62" viewBox="0 0 62 62" fill="none" xmlns="http://www.w3.org/2000/svg">
<mask id="mask0_703_106" style="mask-type:alpha" maskUnits="userSpaceOnUse" x="0" y="0" width="62" height="62">
<rect width="62" height="62" fill="#333333"/>
</mask>
<g mask="url(#mask0_703_106)">
<path d="M45.993 52.9782L29.0722 36.0276C28.112 36.4711 27.1323 36.8205 26.133 37.0758C25.1337 37.3307 24.0732 37.4582 22.9516 37.4582C19.0051 37.4582 15.6505 36.0767 12.8876 33.3139C10.1247 30.5514 8.74329 27.1967 8.74329 23.2498C8.74329 22.1304 8.8675 21.0531 9.11593 20.0181C9.36436 18.983 9.72711 17.9904 10.2042 17.0401L19.335 26.0715L25.7739 19.6332L16.8414 10.6012C17.7921 10.1246 18.7698 9.74546 19.7748 9.46388C20.7797 9.18229 21.8386 9.0415 22.9516 9.0415C26.8985 9.0415 30.2534 10.4229 33.0163 13.1858C35.7787 15.9483 37.16 19.3029 37.16 23.2498C37.16 24.439 37.0409 25.5329 36.8028 26.5313C36.5643 27.5298 36.2065 28.4761 35.7294 29.3704L52.68 46.2912C53.0645 46.6869 53.2567 47.165 53.2567 47.7256C53.2567 48.2862 53.0681 48.7549 52.691 49.1316L48.7346 53.0886C48.3578 53.4654 47.9027 53.6372 47.3693 53.604C46.8363 53.5709 46.3775 53.3622 45.993 52.9782ZM47.419 50.7178L50.4047 47.7321L32.53 29.8574C33.2055 28.9299 33.7155 27.8957 34.06 26.7548C34.4044 25.6138 34.5766 24.4455 34.5766 23.2498C34.5766 20.1033 33.3588 17.2823 30.9231 14.7868C28.4871 12.2913 25.3629 11.2804 21.5508 11.754L27.9697 18.1723C28.387 18.5899 28.5956 19.0769 28.5956 19.6332C28.5956 20.1894 28.387 20.6764 27.9697 21.094L20.7958 28.2673C20.3786 28.6845 19.8917 28.8931 19.335 28.8931C18.7787 28.8931 18.2919 28.6845 17.8747 28.2673L11.4558 21.849C11.0816 26.0254 12.1589 29.2404 14.6875 31.4939C17.2162 33.7479 19.9709 34.8748 22.9516 34.8748C24.0935 34.8748 25.2351 34.7108 26.3765 34.3827C27.5179 34.0551 28.5738 33.5418 29.5443 32.843L47.419 50.7178Z" fill="#333333"/>
</g>
</svg>
