<svg width="62" height="62" viewBox="0 0 62 62" fill="none" xmlns="http://www.w3.org/2000/svg">
<mask id="mask0_703_119" style="mask-type:alpha" maskUnits="userSpaceOnUse" x="0" y="0" width="62" height="62">
<rect width="62" height="62" fill="#D9D9D9"/>
</mask>
<g mask="url(#mask0_703_119)">
<path d="M2.58331 45.4073V43.1766C2.58331 41.59 3.43108 40.2733 5.1266 39.2267C6.82256 38.1804 9.00526 37.6573 11.6747 37.6573C12.0687 37.6573 12.4908 37.6762 12.9412 37.7141C13.392 37.7524 13.8708 37.8147 14.3775 37.9008C13.9732 38.606 13.6783 39.3296 13.4927 40.0714C13.3076 40.8133 13.215 41.5568 13.215 42.3021V45.4073H2.58331ZM18.0833 45.4073V42.501C18.0833 41.46 18.3856 40.5082 18.9901 39.6458C19.5946 38.7838 20.4862 38.0381 21.6651 37.4086C22.8444 36.7796 24.2181 36.3077 25.7862 35.993C27.3542 35.6782 29.0855 35.5209 30.98 35.5209C32.911 35.5209 34.6606 35.6782 36.2286 35.993C37.7967 36.3077 39.1704 36.7796 40.3497 37.4086C41.5286 38.0381 42.4179 38.7838 43.0176 39.6458C43.617 40.5082 43.9166 41.46 43.9166 42.501V45.4073H18.0833ZM48.7849 45.4073V42.317C48.7849 41.4929 48.6947 40.7164 48.5143 39.9875C48.3339 39.2585 48.0633 38.563 47.7025 37.9008C48.242 37.8147 48.7264 37.7524 49.1556 37.7141C49.5845 37.6762 49.9909 37.6573 50.375 37.6573C53.0444 37.6573 55.2187 38.178 56.8979 39.2196C58.5771 40.2611 59.4166 41.5801 59.4166 43.1766V45.4073H48.7849ZM20.7409 42.824H41.2739V42.2776C41.1744 41.0518 40.17 40.0499 38.2604 39.2719C36.3514 38.4934 33.9312 38.1042 31 38.1042C28.0688 38.1042 25.6486 38.4934 23.7395 39.2719C21.83 40.0499 20.8305 41.0518 20.7409 42.2776V42.824ZM11.6611 35.2225C10.6468 35.2225 9.78263 34.8626 9.06877 34.1427C8.35534 33.4228 7.99863 32.5574 7.99863 31.5464C7.99863 30.5462 8.35857 29.6918 9.07846 28.9831C9.79835 28.2744 10.6638 27.9201 11.6747 27.9201C12.6749 27.9201 13.5377 28.2744 14.2632 28.9831C14.9883 29.6918 15.3508 30.5512 15.3508 31.5613C15.3508 32.5416 14.9973 33.3969 14.2903 34.1272C13.5829 34.8574 12.7065 35.2225 11.6611 35.2225ZM50.375 35.2225C49.3847 35.2225 48.5244 34.8574 47.7942 34.1272C47.064 33.3969 46.6989 32.5416 46.6989 31.5613C46.6989 30.5512 47.064 29.6918 47.7942 28.9831C48.5244 28.2744 49.3879 27.9201 50.3847 27.9201C51.4115 27.9201 52.2793 28.2744 52.988 28.9831C53.6967 29.6918 54.0511 30.5462 54.0511 31.5464C54.0511 32.5574 53.6989 33.4228 52.9945 34.1427C52.2897 34.8626 51.4165 35.2225 50.375 35.2225ZM31.0174 33.5834C29.4493 33.5834 28.1105 33.0327 27.001 31.9313C25.8914 30.8304 25.3367 29.4933 25.3367 27.9201C25.3367 26.3154 25.8871 24.9703 26.9881 23.8849C28.0894 22.799 29.4267 22.2561 31 22.2561C32.6047 22.2561 33.9497 22.7973 35.0351 23.8797C36.1206 24.9617 36.6633 26.3027 36.6633 27.9026C36.6633 29.4707 36.1223 30.8095 35.0403 31.9191C33.9583 33.0286 32.6174 33.5834 31.0174 33.5834ZM31.0245 31C31.8727 31 32.5939 30.6946 33.1881 30.0836C33.7827 29.4722 34.08 28.7426 34.08 27.8949C34.08 27.0471 33.7848 26.3259 33.1945 25.7313C32.6042 25.1367 31.8727 24.8394 31 24.8394C30.1686 24.8394 29.4474 25.1348 28.8364 25.7255C28.2255 26.3158 27.92 27.0473 27.92 27.9201C27.92 28.751 28.2255 29.4722 28.8364 30.0836C29.4474 30.6946 30.1768 31 31.0245 31Z" fill="#333333"/>
</g>
</svg>
