<svg width="62" height="62" viewBox="0 0 62 62" fill="none" xmlns="http://www.w3.org/2000/svg">
<mask id="mask0_703_93" style="mask-type:alpha" maskUnits="userSpaceOnUse" x="0" y="0" width="62" height="62">
<rect width="62" height="62" fill="#D9D9D9"/>
</mask>
<g mask="url(#mask0_703_93)">
<path d="M35.8683 24.7802V22.3757C37.2564 21.6735 38.7426 21.1469 40.3271 20.796C41.912 20.4451 43.539 20.2697 45.2083 20.2697C46.162 20.2697 47.0778 20.3308 47.9557 20.4531C48.8331 20.5758 49.739 20.7497 50.6733 20.9749V23.3199C49.7722 23.0315 48.8936 22.8319 48.0377 22.7212C47.1813 22.6102 46.2382 22.5546 45.2083 22.5546C43.539 22.5546 41.9096 22.7425 40.32 23.1184C38.7299 23.4943 37.246 24.0482 35.8683 24.7802ZM35.8683 38.889V36.3851C37.1901 35.6833 38.6682 35.1568 40.3025 34.8054C41.9369 34.4545 43.5722 34.2791 45.2083 34.2791C46.162 34.2791 47.0778 34.3404 47.9557 34.4631C48.8331 34.5854 49.739 34.7591 50.6733 34.9843V37.3293C49.7722 37.0413 48.8936 36.8417 48.0377 36.7307C47.1813 36.6196 46.2382 36.564 45.2083 36.564C43.539 36.564 41.9096 36.7662 40.32 37.1705C38.7299 37.5743 37.246 38.1472 35.8683 38.889ZM35.8683 31.8843V29.3804C37.2564 28.6786 38.7426 28.1521 40.3271 27.8007C41.912 27.4498 43.539 27.2744 45.2083 27.2744C46.162 27.2744 47.0778 27.3355 47.9557 27.4578C48.8331 27.5805 49.739 27.7544 50.6733 27.9796V30.3246C49.7722 30.0366 48.8936 29.837 48.0377 29.7259C47.1813 29.6149 46.2382 29.5593 45.2083 29.5593C43.539 29.5593 41.9096 29.7638 40.32 30.1729C38.7299 30.5819 37.246 31.1524 35.8683 31.8843ZM16.7916 41.433C19.0469 41.433 21.2401 41.6922 23.3714 42.2106C25.5026 42.7289 27.6149 43.5726 29.7083 44.7416V19.3952C27.8436 18.0635 25.7885 17.0648 23.5432 16.3992C21.2974 15.7335 19.0469 15.4007 16.7916 15.4007C15.2416 15.4007 13.8845 15.4935 12.7203 15.6791C11.5561 15.8646 10.2635 16.2091 8.84271 16.7124C8.44531 16.845 8.16394 17.0355 7.99861 17.284C7.83284 17.532 7.74996 17.8052 7.74996 18.1035V41.3929C7.74996 41.8566 7.91551 42.1961 8.24661 42.4114C8.5777 42.6267 8.94217 42.6517 9.34 42.4863C10.2838 42.1681 11.3742 41.913 12.6111 41.721C13.8481 41.529 15.2416 41.433 16.7916 41.433ZM32.2916 44.7416C34.385 43.5726 36.4973 42.7289 38.6285 42.2106C40.7598 41.6922 42.953 41.433 45.2083 41.433C46.7583 41.433 48.1518 41.529 49.3888 41.721C50.6258 41.913 51.7161 42.1681 52.6599 42.4863C53.0578 42.6517 53.4222 42.6267 53.7533 42.4114C54.0844 42.1961 54.25 41.8566 54.25 41.3929V18.1035C54.25 17.8052 54.1671 17.5401 54.0013 17.3085C53.836 17.0769 53.5546 16.8782 53.1572 16.7124C51.7364 16.2091 50.4439 15.8646 49.2796 15.6791C48.1154 15.4935 46.7583 15.4007 45.2083 15.4007C42.953 15.4007 40.7025 15.7335 38.4568 16.3992C36.2114 17.0648 34.1564 18.0635 32.2916 19.3952V44.7416ZM31 48.4874C28.9001 47.0498 26.6447 45.9452 24.2336 45.1736C21.8225 44.4021 19.3418 44.0163 16.7916 44.0163C15.447 44.0163 14.1263 44.1289 12.8294 44.3541C11.533 44.5793 10.2704 44.9403 9.04163 45.4371C8.10431 45.8113 7.22425 45.6987 6.40146 45.0994C5.57824 44.5 5.16663 43.6721 5.16663 42.6155V17.6463C5.16663 17.0069 5.33476 16.414 5.67102 15.8677C6.00729 15.3213 6.47831 14.9405 7.08411 14.7252C8.60095 14.0561 10.1792 13.5709 11.8187 13.2695C13.4583 12.9681 15.1159 12.8174 16.7916 12.8174C19.322 12.8174 21.7902 13.1816 24.1961 13.9101C26.6025 14.6391 28.8704 15.6991 31 17.0902C33.1295 15.6991 35.3974 14.6391 37.8038 13.9101C40.2098 13.1816 42.6779 12.8174 45.2083 12.8174C46.884 12.8174 48.5417 12.9681 50.1812 13.2695C51.8208 13.5709 53.399 14.0561 54.9158 14.7252C55.5216 14.9405 55.9926 15.3213 56.3289 15.8677C56.6652 16.414 56.8333 17.0069 56.8333 17.6463V42.6155C56.8333 43.6721 56.3887 44.4835 55.4996 45.0496C54.6101 45.6158 53.6635 45.7118 52.6599 45.3377C51.4647 44.874 50.2434 44.5377 48.9961 44.3289C47.7492 44.1205 46.4866 44.0163 45.2083 44.0163C42.6581 44.0163 40.1775 44.4021 37.7664 45.1736C35.3552 45.9452 33.0998 47.0498 31 48.4874Z" fill="#1C1B1F"/>
</g>
</svg>
