<svg width="62" height="62" viewBox="0 0 62 62" fill="none" xmlns="http://www.w3.org/2000/svg">
<mask id="mask0_703_129" style="mask-type:alpha" maskUnits="userSpaceOnUse" x="0" y="0" width="62" height="62">
<rect width="62" height="62" fill="#D9D9D9"/>
</mask>
<g mask="url(#mask0_703_129)">
<path d="M11.9234 49.0834C10.7342 49.0834 9.74132 48.6852 8.94479 47.8886C8.14826 47.0921 7.75 46.0992 7.75 44.91V17.0901C7.75 15.9009 8.14826 14.9081 8.94479 14.1115C9.74132 13.315 10.7342 12.9167 11.9234 12.9167H50.0766C51.2658 12.9167 52.2587 13.315 53.0552 14.1115C53.8517 14.9081 54.25 15.9009 54.25 17.0901V44.91C54.25 46.0992 53.8517 47.0921 53.0552 47.8886C52.2587 48.6852 51.2658 49.0834 50.0766 49.0834H11.9234ZM11.9234 46.5001H50.0766C50.4745 46.5001 50.8389 46.3345 51.17 46.0034C51.5011 45.6723 51.6667 45.3079 51.6667 44.91V20.6667H10.3333V44.91C10.3333 45.3079 10.4989 45.6723 10.83 46.0034C11.1611 46.3345 11.5255 46.5001 11.9234 46.5001ZM19.375 42.0787L17.5964 40.3001L24.2485 33.5834L17.5318 26.8667L19.375 25.0881L27.8703 33.5834L19.375 42.0787ZM32.2917 42.6251V40.0417H45.2083V42.6251H32.2917Z" fill="#333333"/>
</g>
</svg>
