<svg width="230" height="66" viewBox="0 0 230 66" fill="none" xmlns="http://www.w3.org/2000/svg">
<g clip-path="url(#clip0_723_76)">
<path d="M70.6563 57.0782C56.9811 57.0782 50.0234 49.1093 50.0234 39.1485C50.0234 27.3545 59.4602 16.6763 73.1355 16.6763C86.8107 16.6763 93.7684 24.6451 93.7684 34.6061C93.7684 46.4001 84.3316 57.0782 70.6563 57.0782ZM71.2162 44.4078C76.0145 44.4078 79.0535 40.1046 79.0535 35.3234C79.0535 31.4984 76.5744 29.3467 72.5756 29.3467C67.7773 29.3467 64.7383 33.65 64.7383 38.4312C64.7383 42.2562 67.2174 44.4078 71.2162 44.4078Z" fill="black"/>
<path d="M108.335 56.122H93.9402L105.696 2.96985H120.091L108.335 56.122Z" fill="black"/>
<path fill-rule="evenodd" clip-rule="evenodd" d="M28.2148 57.0782C23.8163 57.0782 19.4978 55.4844 17.0187 52.0579L16.1442 56.0991L0 64.6453L1.74285 56.0991L13.4999 2.96985H27.8949L23.7364 21.6966C27.0951 18.0309 30.2142 16.6762 34.2126 16.6762C42.8498 16.6762 48.6077 22.3341 48.6077 32.6936C48.6077 43.3717 41.9701 57.0782 28.2148 57.0782ZM33.7329 35.7219C33.7329 40.6624 30.2142 44.4078 25.6557 44.4078C23.0966 44.4078 20.7774 43.4514 19.2579 41.778L21.4971 31.9765C23.1765 30.3028 25.0959 29.3467 27.3351 29.3467C30.774 29.3467 33.7329 31.8968 33.7329 35.7219Z" fill="black"/>
<path d="M135.068 57.0782C126.75 57.0782 120.832 54.0502 120.832 47.3562C120.832 46.7986 120.913 45.4437 121.152 44.3282L124.271 30.0641H117.874L120.673 17.6326H127.07L129.39 7.11371L145.505 0.480347L143.785 7.12992L141.465 17.6326H149.303L146.503 30.0641H138.666L136.587 39.4673C136.427 40.1843 136.347 40.9813 136.347 41.3001C136.347 43.1329 137.467 44.4079 139.946 44.4079C140.665 44.4079 141.705 44.1688 141.945 44.0094V55.4845C140.426 56.5206 137.707 57.0782 135.068 57.0782Z" fill="black"/>
<path d="M152.777 57.2392C150.86 57.2392 149.334 55.6476 149.334 53.7378C149.334 51.5094 151.251 49.635 153.487 49.635C155.404 49.635 156.93 51.2266 156.93 53.1364C156.93 55.3647 155.013 57.2392 152.777 57.2392Z" fill="black"/>
<path d="M176.85 56.7797H170.461L172.448 47.7958C172.52 47.4776 172.662 46.9116 172.662 46.4871C172.662 45.32 171.632 44.8956 170.603 44.8956C169.218 44.8956 168.26 45.6029 167.586 46.2043L165.243 56.7797H158.854L162.652 39.6962H169.041L168.58 41.6416C169.822 40.5096 171.384 39.2717 173.975 39.2717C177.56 39.2717 179.618 41.2172 179.618 43.7638C179.618 44.0467 179.512 44.8248 179.441 45.143L176.85 56.7797Z" fill="black"/>
<path d="M190.104 57.2039C184.567 57.2039 180.734 54.4452 180.734 49.4228C180.734 43.9759 184.922 39.2717 190.921 39.2717C195.18 39.2717 198.943 41.8537 198.943 47.0531C198.943 48.2203 198.73 49.5643 198.552 50.2009H187.052V50.2362C187.052 50.484 188.081 52.3584 190.566 52.3584C191.915 52.3584 193.512 52.0402 194.293 51.5096L196.245 55.6477C194.506 56.7443 192.163 57.2039 190.104 57.2039ZM187.655 46.1689H193.299V46.0627C193.299 45.5675 192.696 44.1175 190.672 44.1175C188.969 44.1175 187.868 45.4262 187.655 46.1689Z" fill="black"/>
<path d="M221.233 56.7796H214.276L213.566 47.2297L208.703 56.7796H201.746L200.575 39.696H206.964L207.141 49.1044L212.252 39.696H217.967L218.855 49.1044L223.221 39.696H230L221.233 56.7796Z" fill="black"/>
</g>
<defs>
<clipPath id="clip0_723_76">
<rect width="230" height="65.8008" fill="white"/>
</clipPath>
</defs>
</svg>
