<svg width="96" height="48" viewBox="0 0 96 48" fill="none" xmlns="http://www.w3.org/2000/svg">
<path fill-rule="evenodd" clip-rule="evenodd" d="M57.008 9.0015H79.504C79.856 9.0015 80.208 9.0255 80.544 9.07351L57.064 32.5574C57.0138 32.2063 56.9884 31.852 56.988 31.4973V9.0015H47.988V31.4973C47.9875 33.6646 48.4139 35.8108 49.2429 37.8132C50.0719 39.8156 51.2873 41.6351 52.8196 43.1676C54.3518 44.7002 56.171 45.9157 58.1731 46.7449C60.1752 47.574 62.321 48.0005 64.488 48H86.984V38.9985H64.488C64.128 38.9985 63.772 38.9745 63.428 38.9265L86.924 15.4226C86.9763 15.7803 87.003 16.1412 87.004 16.5028V38.9985H96V16.4987C96 14.3321 95.5733 12.1867 94.7443 10.185C93.9153 8.18323 92.7002 6.36442 91.1684 4.83237C89.6366 3.30032 87.8181 2.08503 85.8167 1.25589C83.8154 0.426753 81.6703 0 79.504 0H57.008V9.0015ZM0 6.001V6.025L30.744 45.1835C34.44 49.8883 41.996 47.2759 41.996 41.2909V6.001H33V33.4856L11.424 6.001H0Z" fill="black"/>
</svg>
