<svg width="230" height="54" viewBox="0 0 230 54" fill="none" xmlns="http://www.w3.org/2000/svg">
<g clip-path="url(#clip0_724_40)">
<path d="M34.2074 52.4333H7.75368C3.47143 52.4333 0 49.0191 0 44.8072V15.2001C0 10.9883 3.47143 7.57397 7.75368 7.57397H45.6098L34.2074 52.4333Z" fill="#006DA8"/>
<path d="M34.4082 0.261719H60.8621C65.1442 0.261719 68.6156 3.67604 68.6156 7.88783V37.495C68.6156 41.7068 65.1442 45.121 60.8621 45.121H23.0059L34.4082 0.261719Z" fill="#9F73FF"/>
<path d="M34.4082 0.261719H60.8621C65.1442 0.261719 68.6156 3.67604 68.6156 7.88783V37.495C68.6156 41.7068 65.1442 45.121 60.8621 45.121H23.0059L34.4082 0.261719Z" fill="url(#paint0_linear_724_40)"/>
<path d="M84.1653 7.92285H89.7464L97.9879 34.4104L106.684 7.92285H111.616L119.857 34.4104L128.488 7.92285H133.874L122.842 40.474H117.002L109.02 16.284L100.714 40.474L94.8729 40.5377L84.1653 7.92285Z" fill="#2B2B2B"/>
<path d="M168.501 7.92276V40.4739H163.893L163.179 35.2402C160.41 38.9846 156.625 40.8567 151.822 40.8567C148.751 40.8567 146.004 40.1971 143.581 38.8783C141.202 37.5592 139.32 35.6444 137.935 33.1339C136.594 30.6233 135.924 27.6449 135.924 24.1983C135.924 20.9219 136.594 18.0285 137.935 15.518C139.32 13.0075 141.223 11.0502 143.646 9.64606C146.069 8.24188 148.794 7.53979 151.822 7.53979C154.462 7.53979 156.733 8.02914 158.636 9.00781C160.54 9.98644 162.054 11.3268 163.179 13.0288L163.893 7.92276H168.501ZM152.342 36.1975C154.462 36.1975 156.344 35.7081 157.988 34.7295C159.675 33.7083 160.973 32.3042 161.881 30.517C162.79 28.6873 163.244 26.6236 163.244 24.3259C163.244 21.9856 162.79 19.9007 161.881 18.071C160.973 16.1988 159.675 14.7521 157.988 13.7309C156.344 12.7097 154.462 12.1991 152.342 12.1991C149.054 12.1991 146.393 13.3267 144.36 15.5818C142.37 17.7944 141.375 20.6666 141.375 24.1983C141.375 27.73 142.37 30.6233 144.36 32.8786C146.393 35.0913 149.054 36.1975 152.342 36.1975Z" fill="#2B2B2B"/>
<path d="M192.557 7.92285V13.0289H189.896C186.738 13.0289 184.467 14.0714 183.082 16.1564C181.741 18.2413 181.071 20.8156 181.071 23.8792V40.474H175.75V7.92285H180.357L181.071 12.8374C182.022 11.3482 183.256 10.1568 184.77 9.26319C186.284 8.36962 188.382 7.92285 191.064 7.92285H192.557Z" fill="#2B2B2B"/>
<path d="M214.101 7.53979C217.173 7.53979 219.898 8.19933 222.278 9.51841C224.7 10.8375 226.582 12.7522 227.923 15.2627C229.308 17.7732 230 20.7517 230 24.1983C230 27.4747 229.308 30.3681 227.923 32.8786C226.582 35.3892 224.7 37.3463 222.278 38.7504C219.855 40.1547 217.129 40.8567 214.101 40.8567C211.418 40.8567 209.126 40.3886 207.222 39.4527C205.319 38.4738 203.826 37.1547 202.744 35.4955V53.2389H197.423V7.92276H202.031L202.744 13.1565C205.513 9.41203 209.299 7.53979 214.101 7.53979ZM213.582 36.1975C216.87 36.1975 219.509 35.0913 221.499 32.8786C223.532 30.6233 224.549 27.73 224.549 24.1983C224.549 20.6666 223.532 17.7944 221.499 15.5818C219.509 13.3267 216.87 12.1991 213.582 12.1991C211.462 12.1991 209.558 12.7097 207.871 13.7309C206.227 14.7095 204.951 16.1137 204.042 17.9434C203.134 19.7305 202.679 21.7729 202.679 24.0706C202.679 26.4109 203.134 28.5171 204.042 30.3894C204.951 32.2189 206.227 33.6443 207.871 34.6655C209.558 35.6867 211.462 36.1975 213.582 36.1975Z" fill="#2B2B2B"/>
</g>
<defs>
<linearGradient id="paint0_linear_724_40" x1="38.5747" y1="36.9792" x2="75.5535" y2="6.35552" gradientUnits="userSpaceOnUse">
<stop stop-color="#01A4FF"/>
<stop offset="0.791667" stop-color="#01FFC2"/>
</linearGradient>
<clipPath id="clip0_724_40">
<rect width="230" height="53" fill="white" transform="translate(0 0.261719)"/>
</clipPath>
</defs>
</svg>
