<svg width="230" height="32" viewBox="0 0 230 32" fill="none" xmlns="http://www.w3.org/2000/svg">
<g clip-path="url(#clip0_723_93)">
<path fill-rule="evenodd" clip-rule="evenodd" d="M51.6179 0.716147H51.1215C48.5086 0.712079 46.3886 2.82831 46.3886 5.44104V16.0079C46.3886 18.1181 44.6447 19.8274 42.5691 19.8274C41.336 19.8274 40.1049 19.2067 39.3745 18.1649L28.5815 2.75099C27.6862 1.47107 26.2294 0.708008 24.6522 0.708008C22.1922 0.708008 19.9783 2.79982 19.9783 5.38204V16.01C19.9783 18.1201 18.2487 19.8294 16.1589 19.8294C14.9217 19.8294 13.6927 19.2088 12.9622 18.1669L0.885398 0.919632C0.612738 0.530979 0.000244141 0.722251 0.000244141 1.19841V10.4142C0.000244141 10.8802 0.142681 11.3319 0.409253 11.7144L12.2927 28.687C12.9947 29.6901 14.0305 30.4349 15.2249 30.7056C18.2141 31.3852 20.9652 29.0839 20.9652 26.1516V15.5298C20.9652 13.4196 22.6745 11.7104 24.7845 11.7104H24.7906C26.0625 11.7104 27.255 12.331 27.9854 13.3728L38.7781 28.7847C39.6754 30.0666 41.0572 30.8278 42.7054 30.8278C45.2204 30.8278 47.3753 28.7337 47.3753 26.1536V15.5277C47.3753 13.4176 49.0845 11.7083 51.1947 11.7083H51.6159C51.8805 11.7083 52.0941 11.4947 52.0941 11.2302V1.1923C52.0941 0.927772 51.8805 0.714112 51.6159 0.714112L51.6179 0.716147ZM113.577 8.6683H110.935C110.667 8.6683 110.449 8.88603 110.449 9.15462V30.3372C110.449 30.6058 110.667 30.8237 110.935 30.8237H113.577C113.845 30.8237 114.063 30.6058 114.063 30.3372V9.15462C114.063 8.88603 113.845 8.6683 113.577 8.6683ZM110.848 0.710044H113.662C113.931 0.710044 114.148 0.927774 114.148 1.19637V4.6556C114.148 4.92419 113.931 5.14193 113.662 5.14193H110.848C110.579 5.14193 110.362 4.92419 110.362 4.6556V1.19637C110.362 0.927774 110.579 0.710044 110.848 0.710044ZM129.386 8.06598C126.417 8.06598 124.266 9.09766 122.888 10.6055C122.447 11.0531 121.684 10.7398 121.684 10.111V9.15462C121.684 8.88603 121.466 8.6683 121.197 8.6683H118.601C118.332 8.6683 118.115 8.88603 118.115 9.15462V30.3372C118.115 30.6058 118.332 30.8237 118.601 30.8237H121.199C121.468 30.8237 121.686 30.6058 121.686 30.3372V16.9277C121.686 12.2801 122.589 11.2485 127.538 11.2485C132.487 11.2485 133.303 12.0665 133.303 16.712V30.3352C133.303 30.6038 133.52 30.8215 133.789 30.8215H136.43C136.699 30.8215 136.916 30.6038 136.916 30.3352V15.7211C136.916 10.4284 133.905 8.06192 129.388 8.06192V8.06598H129.386ZM156.368 10.9066C156.809 11.3543 157.572 11.0409 157.572 10.4121V1.1984C157.572 0.929804 157.79 0.712079 158.058 0.712079H160.657C160.926 0.712079 161.144 0.929804 161.144 1.1984V30.3392C161.144 30.6079 160.926 30.8257 160.657 30.8257H158.058C157.79 30.8257 157.572 30.6079 157.572 30.3392V29.0819C157.599 28.4388 156.819 28.1295 156.368 28.5873C155.12 30.1357 152.711 31.4259 149.484 31.4259C143.807 31.4259 140.105 27.3827 140.105 19.8538C140.105 11.8956 144.234 8.06598 149.612 8.06598C152.839 8.06598 155.163 9.35809 156.368 10.9066ZM144.018 19.7663C144.018 27.0368 144.922 28.1131 150.817 28.1131C156.669 28.1131 157.572 27.0368 157.572 19.7663C157.572 12.4958 156.712 11.3767 150.817 11.3767C144.922 11.3767 144.018 12.4958 144.018 19.7663ZM176.246 18.3928L171.989 17.6623C168.847 17.1027 168.288 16.1565 168.288 14.5205C168.331 12.2822 169.191 11.165 173.365 11.165C177.274 11.165 178.525 12.3208 178.794 14.8155C178.82 15.0618 179.028 15.251 179.276 15.251H181.858C182.135 15.251 182.361 15.019 182.344 14.7403C182.094 10.4569 178.173 8.06396 173.495 8.06396C168.245 8.06396 164.762 10.8598 164.762 14.8623C164.762 18.5189 167.602 20.1122 171 20.7573L175.691 21.618C178.273 22.0921 179.134 22.9529 179.134 24.5868C179.134 27.2118 178.23 28.331 173.798 28.331C169.366 28.331 168.141 27.053 167.856 24.4628C167.83 24.2164 167.622 24.0293 167.374 24.0293H164.776C164.503 24.0293 164.281 24.2552 164.287 24.5279C164.411 29.1427 168.595 31.4299 173.58 31.4299C179.001 31.4299 182.743 28.6342 182.743 24.4158C182.743 20.7166 179.903 19.0378 176.246 18.3928ZM195.052 28.2454C199.87 28.2454 200.774 27.2138 200.774 22.5662V9.16073C200.774 8.89214 200.991 8.67441 201.26 8.67441H203.901C204.17 8.67441 204.388 8.89214 204.388 9.16073V30.3435C204.388 30.6119 204.17 30.8298 203.901 30.8298H201.26C200.991 30.8298 200.774 30.6119 200.774 30.3435V29.4197C200.764 28.7623 200.082 28.4348 199.612 28.8945C198.236 30.4003 196.086 31.432 193.202 31.432C188.77 31.432 185.759 29.0655 185.759 23.773V9.15868C185.759 8.8901 185.977 8.67236 186.245 8.67236H188.886C189.155 8.67236 189.373 8.8901 189.373 9.15868V22.7819C189.373 27.4274 190.233 28.2454 195.052 28.2454ZM225.521 8.6683V5.82766C225.521 4.71054 226.426 3.80503 227.545 3.80503H229.51C229.778 3.80503 229.995 3.58732 229.995 3.31871V1.19434C229.995 0.925739 229.778 0.708008 229.51 0.708008H228.147C224.274 0.708008 221.908 2.85883 221.908 6.5602V8.6683H219.045C216.507 8.67236 214.515 9.02033 213.186 10.6055C212.698 11.0674 212.024 10.7214 212.024 10.05V9.15666C212.024 8.88805 211.807 8.67034 211.538 8.67034H208.897C208.628 8.67034 208.411 8.88805 208.411 9.15666V30.3392C208.411 30.6079 208.628 30.8257 208.897 30.8257H211.538C211.807 30.8257 212.024 30.6079 212.024 30.3392V17.06C212.024 12.6708 213.144 11.6392 217.962 11.6392H221.908V30.3413C221.908 30.6099 222.125 30.8278 222.394 30.8278H225.036C225.303 30.8278 225.521 30.6099 225.521 30.3413V11.6392H229.515C229.782 11.6392 230 11.4214 230 11.1528V9.15868C230 8.8901 229.782 8.67236 229.515 8.67236H225.521V8.6683ZM95.7435 25.299C95.837 25.6878 96.1849 25.9625 96.5838 25.9625H96.5858C96.9827 25.9625 97.3286 25.6918 97.4243 25.3071L103.482 1.07835C103.537 0.86062 103.732 0.708008 103.956 0.708008H106.98C107.303 0.708008 107.539 1.01324 107.458 1.3266L99.8375 30.4715C99.7827 30.677 99.5974 30.8215 99.3838 30.8215H93.9893C93.7717 30.8215 93.5824 30.673 93.5276 30.4634L87.1972 6.08405C87.0995 5.70354 86.7556 5.43698 86.3607 5.43698H86.3059C85.9131 5.43698 85.5692 5.70354 85.4695 6.08405L79.1413 30.4634C79.0863 30.675 78.8969 30.8215 78.6793 30.8215H73.2849C73.0713 30.8215 72.8842 30.677 72.8311 30.4715L65.2108 1.3266C65.1293 1.01324 65.3654 0.708008 65.6888 0.708008H68.7127C68.9364 0.708008 69.1318 0.86062 69.1869 1.07835L75.2426 25.3071C75.338 25.6918 75.6819 25.9625 76.0808 25.9625C76.4797 25.9625 76.8276 25.6878 76.9213 25.299L82.7429 1.08242C82.7957 0.86266 82.9911 0.708008 83.2171 0.708008H89.4498C89.6755 0.708008 89.8709 0.86266 89.9239 1.08242L95.7435 25.299Z" fill="#0B100F"/>
</g>
<defs>
<clipPath id="clip0_723_93">
<rect width="230" height="30.7715" fill="white" transform="translate(0 0.693359)"/>
</clipPath>
</defs>
</svg>
