<svg width="230" height="50" viewBox="0 0 230 50" fill="none" xmlns="http://www.w3.org/2000/svg">
<g clip-path="url(#clip0_724_55)">
<path d="M65.5869 4.37432C64.8849 4.02874 64.5825 4.68733 64.172 5.0219C64.0315 5.12983 63.9127 5.2701 63.7939 5.39959C62.7677 6.50045 61.5688 7.22385 60.0025 7.13736C57.7125 7.00775 55.7574 7.73115 54.0291 9.4906C53.6618 7.32099 52.4413 6.02549 50.5834 5.19451C49.6114 4.76268 48.6284 4.33084 47.9478 3.39171C47.4725 2.72269 47.3429 1.97784 47.1052 1.24378C46.9539 0.801285 46.8027 0.347768 46.295 0.272182C45.7442 0.185934 45.5281 0.649876 45.312 1.03871C44.4479 2.62554 44.1131 4.37421 44.1454 6.14443C44.221 10.1276 45.8953 13.3009 49.2222 15.557C49.6003 15.8161 49.6975 16.075 49.5787 16.453C49.3518 17.2302 49.0817 17.9857 48.8442 18.7629C48.6929 19.2596 48.466 19.3675 47.9368 19.1514C46.1113 18.3852 44.5341 17.2517 43.1407 15.8809C40.7752 13.5817 38.6364 11.0451 35.9685 9.05888C35.3421 8.5947 34.7155 8.1631 34.0673 7.75271C31.3452 5.09749 34.4238 2.91686 35.1367 2.658C35.882 2.38812 35.3959 1.45964 32.9871 1.47066C30.5783 1.48132 28.3748 2.29097 25.5664 3.37038C25.156 3.53233 24.7238 3.65092 24.2809 3.74807C21.7318 3.26245 19.0853 3.15428 16.3201 3.46753C11.1136 4.0503 6.9551 6.52225 3.89823 10.7429C0.225732 15.8161 -0.638377 21.5801 0.420207 27.5926C1.53281 33.9287 4.7516 39.1747 9.69886 43.2767C14.8297 47.5294 20.7383 49.6128 27.4785 49.2134C31.5724 48.976 36.1307 48.4256 41.2723 44.0539C42.5684 44.7016 43.9295 44.9605 46.1871 45.1548C47.9262 45.3167 49.6005 45.0685 50.8966 44.7987C52.9273 44.3669 52.787 42.4779 52.0525 42.1325C46.1008 39.3477 47.4076 40.481 46.2195 39.5634C49.244 35.969 53.8024 32.234 55.5846 20.1337C55.725 19.1731 55.6062 18.5685 55.5846 17.7913C55.5738 17.3165 55.6818 17.1331 56.222 17.0789C57.7125 16.9062 59.16 16.4962 60.4886 15.7621C64.3449 13.6465 65.9002 10.1708 66.2674 6.00416C66.3216 5.36725 66.2567 4.70866 65.5869 4.37432ZM31.9828 41.8733C26.2147 37.3183 23.4172 35.8178 22.2613 35.8826C21.1811 35.9474 21.3756 37.1887 21.6131 37.9984C21.8616 38.797 22.1857 39.3477 22.6393 40.0492C22.9525 40.5133 23.1687 41.204 22.3262 41.7224C20.4682 42.8773 17.2384 41.3336 17.0871 41.2582C13.3283 39.0344 10.185 36.0983 7.97052 32.0831C5.83177 28.2185 4.58968 24.0737 4.38436 19.648C4.33034 18.5795 4.64358 18.2015 5.70216 18.0074C7.09556 17.7483 8.53225 17.6942 9.92565 17.8992C15.8127 18.7629 20.8246 21.4075 25.0264 25.5956C27.4244 27.9811 29.239 30.831 31.1078 33.6158C33.0953 36.5733 35.234 39.3908 37.9561 41.7007C38.9174 42.5102 39.6843 43.1254 40.4188 43.5789C38.2046 43.8271 34.5104 43.8813 31.9828 41.8733ZM34.748 24.0089C34.748 23.534 35.1261 23.1563 35.6015 23.1563C35.7095 23.1563 35.8067 23.1776 35.8932 23.2099C36.012 23.2533 36.1201 23.3181 36.2064 23.415C36.3577 23.5663 36.444 23.782 36.444 24.0088C36.444 24.4838 36.0661 24.8615 35.5909 24.8615C35.1157 24.8615 34.748 24.4839 34.748 24.0089ZM43.3354 28.4346C42.7846 28.6614 42.2337 28.8554 41.7044 28.8771C40.8835 28.9202 39.9869 28.5855 39.5009 28.1754C38.7448 27.5385 38.2047 27.1825 37.9779 26.0706C37.8806 25.5956 37.9346 24.8616 38.0212 24.4408C38.2155 23.534 37.9995 22.9512 37.3623 22.4221C36.8437 21.9902 36.1848 21.8717 35.461 21.8717C35.191 21.8717 34.9427 21.7528 34.759 21.6557C34.4565 21.5046 34.2082 21.1268 34.4457 20.6626C34.5213 20.5117 34.8887 20.1446 34.9752 20.0799C35.9581 19.5184 37.0923 19.7021 38.1401 20.123C39.1123 20.5224 39.8468 21.2564 40.9053 22.2926C41.9854 23.5446 42.1798 23.8903 42.7955 24.8292C43.2818 25.5633 43.7246 26.3188 44.027 27.1825C44.2106 27.7222 43.9728 28.1647 43.3354 28.4346Z" fill="#4D6BFE"/>
<path d="M140.884 17.8284C139.356 17.8284 137.816 18.1654 136.815 19.1139C136.728 19.195 136.648 19.2823 136.567 19.3698H135.834V17.8284H131.815V42.0906H135.834V27.0142C135.834 25.4604 136.169 23.9003 137.101 22.8831C138.033 21.8597 139.462 21.4978 140.884 21.4978C142.3 21.4978 143.735 21.8597 144.667 22.8831C145.599 23.9003 145.934 25.4604 145.934 27.0142C145.934 28.5618 145.599 30.1218 144.667 31.1389C143.735 32.1623 142.3 32.5242 140.884 32.5242H138.598V36.1935H140.884C143.251 36.1935 145.63 35.5882 147.183 33.8908C148.736 32.1935 149.289 29.5976 149.289 27.014C149.289 24.4305 148.736 21.8283 147.183 20.1311C145.63 18.4337 143.251 17.8284 140.884 17.8284ZM84.7411 27.6506C84.7411 29.2044 84.4057 30.7644 83.4739 31.7816C82.5421 32.7989 81.1134 33.1669 79.6909 33.1669C78.2684 33.1669 76.8396 32.7987 75.9079 31.7816C74.9761 30.7644 74.6407 29.2044 74.6407 27.6506C74.6407 26.103 74.9761 24.5368 75.9079 23.5195C76.8397 22.5023 78.2684 22.1404 79.6909 22.1404H81.9768V18.4712H79.6909C77.3242 18.4712 74.9449 19.0764 73.392 20.7738C71.839 22.4712 71.2861 25.067 71.2861 27.6506C71.2861 30.2341 71.839 32.8363 73.392 34.5335C74.9449 36.2309 77.3242 36.8362 79.6909 36.8362C81.219 36.8362 82.7533 36.493 83.7596 35.5508C83.8466 35.4696 83.9274 35.3823 84.0019 35.2948H84.7411V36.8362H88.7602V12.568H84.7411V27.6506ZM100.196 17.8284C97.7364 17.8284 95.264 18.4587 93.6489 20.2122C92.04 21.9658 91.4622 24.6553 91.4622 27.3324C91.4622 30.0032 92.04 32.699 93.6489 34.4525C95.264 36.206 97.7362 36.8363 100.196 36.8363C102.656 36.8363 105.129 36.206 106.744 34.4525C107.57 33.5477 108.129 32.3995 108.477 31.1265H104.501C104.389 31.295 104.265 31.4573 104.129 31.607C103.159 32.6617 101.675 33.036 100.196 33.036C98.7243 33.036 97.2396 32.6617 96.2705 31.607C95.3015 30.5524 94.9536 28.9361 94.9536 27.3325C94.9536 25.7288 95.3015 24.1125 96.2705 23.058C97.2396 22.0033 98.7243 21.6289 100.196 21.6289C101.675 21.6289 103.16 22.0033 104.129 23.058C104.799 23.7881 105.172 24.7803 105.34 25.8599H98.2335V28.8052H108.937V27.3325C108.937 24.6555 108.359 21.9659 106.744 20.2124C105.135 18.4588 102.656 17.8284 100.196 17.8284ZM120.372 17.8284C117.919 17.8284 115.44 18.4587 113.831 20.2122C112.216 21.9658 111.639 24.6553 111.639 27.3324C111.639 30.0032 112.216 32.699 113.831 34.4525C115.44 36.206 117.919 36.8363 120.372 36.8363C122.832 36.8363 125.305 36.206 126.92 34.4525C127.752 33.5477 128.305 32.3995 128.653 31.1265H124.677C124.566 31.295 124.441 31.4573 124.305 31.607C123.336 32.6617 121.851 33.036 120.379 33.036C118.9 33.036 117.416 32.6617 116.447 31.607C115.478 30.5524 115.13 28.9361 115.13 27.3325C115.13 25.7288 115.478 24.1125 116.447 23.058C117.416 22.0033 118.9 21.6289 120.379 21.6289C121.851 21.6289 123.336 22.0033 124.305 23.058C124.976 23.7881 125.348 24.7803 125.516 25.8599H118.41V28.8052H129.113V27.3325C129.113 24.6555 128.535 21.9659 126.92 20.2124C125.311 18.4588 122.832 17.8284 120.372 17.8284ZM167.272 27.0203C165.663 25.9844 163.185 25.6163 160.731 25.6163H160.818C159.768 25.6163 158.712 25.4728 158.023 25.0672C157.333 24.6678 157.091 24.0499 157.091 23.4385C157.091 22.8271 157.333 22.2092 158.023 21.8099C158.712 21.4042 159.768 21.2607 160.818 21.2607C161.868 21.2607 162.924 21.4105 163.607 21.8099C164.297 22.2092 164.545 22.8271 164.545 23.4385H168.639C168.639 21.8597 168.111 20.2747 166.651 19.2389C165.191 18.2029 162.955 17.8286 160.731 17.8286C158.507 17.8286 156.271 18.2029 154.811 19.2389C153.351 20.2748 152.83 21.8597 152.83 23.4385C152.83 25.0173 153.351 26.6085 154.811 27.6382C156.271 28.6741 158.507 29.0485 160.731 29.0485C161.887 29.0485 163.154 29.1919 163.912 29.5913C164.676 29.997 164.949 30.6147 164.949 31.2262C164.949 31.8378 164.676 32.4555 163.912 32.8549C163.154 33.2543 161.986 33.3977 160.824 33.3977C159.669 33.3977 158.501 33.2543 157.737 32.8549C156.979 32.4492 156.706 31.8377 156.706 31.2262H151.991C151.991 32.7987 152.569 34.3901 154.184 35.4259C155.799 36.4618 158.271 36.8299 160.731 36.8299C163.185 36.8299 165.663 36.4617 167.272 35.4259C168.887 34.3899 169.465 32.7987 169.465 31.2262C169.465 29.6475 168.887 28.0562 167.272 27.0203ZM180.907 17.8284C178.448 17.8284 175.975 18.4587 174.36 20.2122C172.751 21.9658 172.167 24.6553 172.167 27.3324C172.167 30.0032 172.751 32.699 174.36 34.4525C175.975 36.206 178.447 36.8363 180.907 36.8363C183.367 36.8363 185.84 36.206 187.455 34.4525C188.281 33.5477 188.84 32.3995 189.182 31.1265H185.212C185.1 31.295 184.976 31.4573 184.839 31.607C183.87 32.6617 182.386 33.036 180.907 33.036C179.435 33.036 177.944 32.6617 176.981 31.607C176.012 30.5524 175.665 28.9361 175.665 27.3325C175.665 25.7288 176.012 24.1125 176.981 23.058C177.944 22.0033 179.435 21.6289 180.907 21.6289C182.386 21.6289 183.87 22.0033 184.839 23.058C185.51 23.7881 185.883 24.7803 186.051 25.8599H178.938V28.8052H189.647V27.3325C189.647 24.6555 189.07 21.9659 187.455 20.2124C185.84 18.4588 183.367 17.8284 180.907 17.8284ZM201.084 17.8284C198.624 17.8284 196.151 18.4587 194.536 20.2122C192.927 21.9658 192.344 24.6553 192.344 27.3324C192.344 30.0032 192.927 32.699 194.536 34.4525C196.151 36.206 198.624 36.8363 201.084 36.8363C203.544 36.8363 206.016 36.206 207.631 34.4525C208.457 33.5477 209.016 32.3995 209.364 31.1265H205.389C205.277 31.295 205.152 31.4573 205.016 31.607C204.047 32.6617 202.562 33.036 201.084 33.036C199.612 33.036 198.121 32.6617 197.158 31.607C196.189 30.5524 195.841 28.9361 195.841 27.3325C195.841 25.7288 196.189 24.1125 197.158 23.058C198.121 22.0033 199.612 21.6289 201.084 21.6289C202.562 21.6289 204.047 22.0033 205.016 23.058C205.687 23.7881 206.06 24.7803 206.227 25.8599H199.121V28.8052H209.824V27.3325C209.824 24.6555 209.246 21.9659 207.631 20.2124C206.016 18.4588 203.544 17.8284 201.084 17.8284ZM212.52 11.7192H216.539V36.8363H212.52V11.7192ZM225.018 18.6709L218.421 26.7645L225.018 36.8363H230L223.403 26.7645L230 18.6709H225.018Z" fill="#4D6BFE"/>
</g>
<defs>
<clipPath id="clip0_724_55">
<rect width="230" height="49" fill="white" transform="translate(0 0.261719)"/>
</clipPath>
</defs>
</svg>
