<svg width="230" height="87" viewBox="0 0 230 87" fill="none" xmlns="http://www.w3.org/2000/svg">
<path d="M199.802 64.4088V21.9387H206.534V49.9675L220.77 33.6566H228.93L216.124 47.6349L229.05 64.4088H221.008L210.539 49.9959L206.534 49.9675V64.4088H199.802Z" fill="black"/>
<path d="M179.39 65.1225C169.383 65.1225 163.963 58.0442 163.963 49.0029C163.963 39.9022 169.383 32.8833 179.39 32.8833C189.457 32.8833 194.818 39.9022 194.818 49.0029C194.818 58.0442 189.457 65.1225 179.39 65.1225ZM170.991 49.0029C170.991 56.0218 174.803 59.5311 179.39 59.5311C184.036 59.5311 187.789 56.0218 187.789 49.0029C187.789 41.984 184.036 38.415 179.39 38.415C174.803 38.415 170.991 41.984 170.991 49.0029Z" fill="black"/>
<path d="M145.229 64.4087V38.5341L150.888 33.6565H162.92V39.3668H151.96V64.4087H145.229Z" fill="black"/>
<path d="M119.492 65.1942C106.663 65.1942 99.0134 55.9029 99.0134 43.2332C99.0134 30.4446 106.936 20.9275 119.742 20.9275C129.75 20.9275 137.076 26.0429 138.804 35.56H131.12C129.988 30.1472 125.461 27.1136 119.742 27.1136C110.51 27.1136 106.459 35.0843 106.459 43.2332C106.459 51.3822 110.51 59.2934 119.742 59.2934C128.558 59.2934 132.43 52.9288 132.728 47.6349H119.445V41.476H139.519L139.486 44.6959C139.486 56.6618 134.597 65.1942 119.492 65.1942Z" fill="black"/>
<path d="M34.5969 54.8496L63.5599 33.4994C64.9799 32.4527 67.0094 32.861 67.6861 34.4868C71.2469 43.061 69.6559 53.365 62.5712 60.4397C55.4866 67.5141 45.6291 69.0657 36.6191 65.5321L26.7764 70.0828C40.8937 79.7185 58.0365 77.3356 68.749 66.6309C77.2462 58.1457 79.8779 46.5797 77.4171 36.1497L77.4394 36.1719C73.871 20.8497 78.3168 14.7253 87.4235 2.20172C87.6388 1.90478 87.8544 1.60783 88.0701 1.30347L76.0863 13.2702V13.2331L34.5896 54.8571" fill="black"/>
<path d="M28.6201 60.0387C18.4874 50.3731 20.2344 35.4146 28.8802 26.7886C35.2734 20.4042 45.7481 17.7986 54.8919 21.6291L64.7123 17.1008C62.9432 15.8239 60.6756 14.4506 58.0737 13.4855C46.3131 8.65276 32.2329 11.058 22.6728 20.5973C13.4768 29.7802 10.585 43.8998 15.5509 55.9483C19.2605 64.9531 13.1795 71.3224 7.0538 77.7513C4.88305 80.0302 2.70487 82.3094 0.950439 84.722L28.6125 60.046" fill="black"/>
</svg>
