<svg width="230" height="64" viewBox="0 0 230 64" fill="none" xmlns="http://www.w3.org/2000/svg">
<path d="M72.3347 30.4622C72.3347 40.822 78.9878 48.0454 88.2072 48.0454C97.4265 48.0454 104.08 40.822 104.08 30.4622C104.08 20.1023 97.4265 12.8789 88.2072 12.8789C78.9878 12.8789 72.3347 20.1023 72.3347 30.4622ZM97.9967 30.4622C97.9967 37.8756 93.9574 42.6754 88.2072 42.6754C82.457 42.6754 78.4176 37.8756 78.4176 30.4622C78.4176 23.0487 82.457 18.2489 88.2072 18.2489C93.9574 18.2489 97.9967 23.0487 97.9967 30.4622Z" fill="black"/>
<path d="M121.21 48.0453C128.195 48.0453 132.187 42.1525 132.187 35.0717C132.187 27.9909 128.195 22.0981 121.21 22.0981C117.978 22.0981 115.602 23.3812 114.034 25.2346V22.5734H108.331V56.0766H114.034V44.9088C115.602 46.7622 117.978 48.0453 121.21 48.0453ZM113.891 34.3589C113.891 29.6542 116.552 27.088 120.069 27.088C124.204 27.088 126.437 30.3195 126.437 35.0717C126.437 39.824 124.204 43.0555 120.069 43.0555C116.552 43.0555 113.891 40.4417 113.891 35.8321V34.3589Z" fill="black"/>
<path d="M147.62 48.0453C152.61 48.0453 156.554 45.4316 158.313 41.0595L153.418 39.2062C152.657 41.7724 150.424 43.198 147.62 43.198C143.961 43.198 141.395 40.5843 140.967 36.3073H158.455V34.4064C158.455 27.5632 154.606 22.0981 147.383 22.0981C140.159 22.0981 135.502 27.7533 135.502 35.0717C135.502 42.7703 140.492 48.0453 147.62 48.0453ZM147.335 26.8979C150.947 26.8979 152.657 29.274 152.705 32.0303H141.252C142.108 28.6562 144.389 26.8979 147.335 26.8979Z" fill="black"/>
<path d="M162.734 47.5226H168.437V32.8857C168.437 29.3215 171.051 27.4206 173.617 27.4206C176.753 27.4206 177.989 29.6542 177.989 32.7431V47.5226H183.691V31.0799C183.691 25.7098 180.555 22.0981 175.328 22.0981C172.096 22.0981 169.862 23.5713 168.437 25.2346V22.5734H162.734V47.5226Z" fill="black"/>
<path d="M200.394 13.4016L187.468 47.5226H193.503L196.402 39.729H211.134L214.08 47.5226H220.21L207.284 13.4016H200.394ZM203.72 20.1498L209.138 34.4065H198.398L203.72 20.1498Z" fill="black"/>
<path d="M230 13.5007H223.917V47.6217H230V13.5007Z" fill="black"/>
<path d="M58.399 25.9336C59.8365 21.619 59.3415 16.8925 57.0426 12.9679C53.5854 6.94845 46.6352 3.85158 39.8475 5.30893C36.8278 1.90713 32.4894 -0.0274274 27.9412 0.000293892C21.0029 -0.0155469 14.8468 4.45155 12.7123 11.0532C8.25506 11.966 4.40773 14.756 2.15636 18.7102C-1.32662 24.7139 -0.532606 32.2818 4.12062 37.43C2.68307 41.7447 3.17809 46.4711 5.47698 50.3957C8.93423 56.4152 15.8844 59.5121 22.6721 58.0547C25.6898 61.4565 30.0302 63.3911 34.5784 63.3614C41.5207 63.3792 47.6788 58.9081 49.8133 52.3005C54.2705 51.3877 58.1178 48.5978 60.3692 44.6435C63.8482 38.6399 63.0522 31.0779 58.401 25.9296L58.399 25.9336ZM34.5824 59.221C31.8043 59.2249 29.1134 58.2527 26.9808 56.4726C27.0778 56.4211 27.2462 56.3281 27.3551 56.2607L39.9722 48.974C40.6177 48.6077 41.0138 47.9206 41.0098 47.178V29.3908L46.3422 32.4699C46.3996 32.4976 46.4372 32.5531 46.4452 32.6164V47.3463C46.4372 53.8965 41.1326 59.2071 34.5824 59.221ZM9.07086 48.3245C7.67885 45.9207 7.17789 43.103 7.65509 40.3685C7.74815 40.4239 7.9125 40.5249 8.02933 40.5922L20.6465 47.879C21.2861 48.2532 22.0781 48.2532 22.7197 47.879L38.1228 38.9844V45.1425C38.1268 45.2059 38.0971 45.2672 38.0476 45.3068L25.2938 52.6708C19.6129 55.9419 12.3578 53.9975 9.07284 48.3245H9.07086ZM5.75024 20.7834C7.1363 18.3756 9.32431 16.5341 11.9301 15.5777C11.9301 15.6866 11.9242 15.8787 11.9242 16.0133V30.5888C11.9202 31.3294 12.3162 32.0164 12.9598 32.3828L28.3629 41.2754L23.0305 44.3544C22.9771 44.3901 22.9097 44.396 22.8503 44.3703L10.0946 37.0003C4.42555 33.7174 2.4811 26.4643 5.74826 20.7854L5.75024 20.7834ZM49.5618 30.9789L34.1587 22.0843L39.4911 19.0072C39.5445 18.9716 39.6118 18.9656 39.6712 18.9914L52.427 26.3554C58.1059 29.6364 60.0524 36.9013 56.7714 42.5803C55.3833 44.9841 53.1973 46.8256 50.5935 47.7839V32.7728C50.5994 32.0323 50.2054 31.3472 49.5638 30.9789H49.5618ZM54.8685 22.9912C54.7754 22.9338 54.6111 22.8348 54.4942 22.7674L41.8771 15.4807C41.2375 15.1064 40.4455 15.1064 39.8039 15.4807L24.4008 24.3753V18.2172C24.3968 18.1538 24.4265 18.0924 24.476 18.0528L37.2298 10.6948C42.9107 7.41773 50.1737 9.36812 53.4488 15.051C54.8328 17.4509 55.3338 20.2606 54.8645 22.9912H54.8685ZM21.5019 33.9668L16.1675 30.8878C16.1101 30.8601 16.0725 30.8046 16.0646 30.7413V16.0113C16.0685 9.45327 21.389 4.13869 27.9471 4.14265C30.7212 4.14265 33.4062 5.11686 35.5388 6.89102C35.4418 6.94251 35.2754 7.03557 35.1646 7.10289L22.5474 14.3896C21.9019 14.756 21.5059 15.4411 21.5098 16.1836L21.5019 33.9629V33.9668ZM24.3988 27.7216L31.2598 23.7595L38.1208 27.7196V35.642L31.2598 39.6022L24.3988 35.642V27.7216Z" fill="black"/>
</svg>
